<?xml version="1.0" standalone="no"?>
<!DOCTYPE svg PUBLIC "-//W3C//DTD SVG 20010904//EN"
 "http://www.w3.org/TR/2001/REC-SVG-20010904/DTD/svg10.dtd">
<svg version="1.0" xmlns="http://www.w3.org/2000/svg"
 width="1024.000000pt" height="1024.000000pt" viewBox="0 0 1024.000000 1024.000000"
 preserveAspectRatio="xMidYMid meet">
<metadata>
Created by potrace 1.16, written by Peter Selinger 2001-2019
</metadata>
<g transform="translate(0.000000,1024.000000) scale(0.100000,-0.100000)"
fill="#000000" stroke="none">
<path d="M5030 8833 c-25 -14 -99 -56 -165 -93 -144 -81 -220 -126 -300 -177
-85 -54 -193 -116 -320 -186 -60 -33 -123 -69 -140 -81 -16 -11 -39 -26 -50
-32 -11 -6 -68 -39 -126 -72 -59 -34 -111 -62 -117 -62 -5 0 -12 -7 -15 -15
-4 -8 -34 -28 -67 -45 -34 -17 -80 -44 -102 -61 -23 -16 -45 -29 -50 -29 -4 0
-58 -30 -118 -66 l-110 -66 2 -406 3 -405 80 -42 c44 -23 105 -56 135 -75 30
-19 74 -45 97 -59 57 -36 98 -59 163 -93 30 -16 71 -40 90 -52 42 -28 325
-193 401 -234 30 -16 117 -68 193 -116 77 -47 144 -86 149 -86 5 0 39 -20 76
-44 36 -24 134 -82 216 -128 188 -106 384 -225 411 -249 11 -11 25 -19 32 -19
13 0 71 33 132 76 25 17 65 42 90 54 25 13 65 36 90 53 24 17 74 46 110 65 36
19 81 44 100 57 19 12 84 51 143 86 l108 63 -7 441 c-3 242 -10 444 -15 449
-34 37 28 16 116 -40 28 -17 86 -51 130 -74 110 -59 148 -81 160 -94 6 -7 44
-31 86 -54 42 -22 105 -61 140 -84 79 -54 137 -88 150 -88 9 0 34 15 174 106
33 21 76 47 95 57 19 11 69 40 110 65 41 26 96 58 122 72 26 14 82 46 125 71
43 25 108 63 146 85 37 21 67 42 67 46 0 4 -10 14 -22 23 -57 39 -128 84 -183
115 -33 19 -71 41 -85 50 -14 10 -59 37 -100 60 -41 24 -104 62 -140 85 -64
42 -247 152 -380 230 -37 22 -76 47 -87 57 -10 9 -36 23 -57 32 -21 9 -91 49
-155 89 -64 41 -145 90 -181 111 -36 21 -72 42 -80 47 -8 5 -31 16 -50 25 -19
9 -46 26 -60 38 -23 21 -156 106 -165 106 -3 0 -42 22 -87 49 -46 26 -88 50
-94 52 -14 5 -107 62 -191 117 -35 23 -67 42 -69 42 -2 0 -35 19 -72 41 -37
23 -125 76 -197 117 -71 41 -148 86 -170 98 -50 30 -59 29 -115 -3z m180
-1063 c53 -33 108 -64 121 -70 13 -5 53 -28 89 -51 54 -34 233 -139 340 -200
14 -8 33 -20 42 -27 9 -8 30 -21 46 -30 98 -57 132 -78 132 -82 0 -7 -208
-136 -405 -251 -49 -29 -124 -74 -166 -101 -42 -26 -84 -48 -94 -48 -10 0 -48
19 -84 43 -36 24 -115 72 -176 106 -60 34 -157 91 -215 127 -58 35 -127 75
-155 90 -27 15 -77 45 -110 67 -33 23 -78 51 -99 62 -50 26 -54 38 -19 55 32
17 184 103 296 169 43 25 102 60 132 76 30 17 89 51 132 77 43 26 82 48 86 48
5 0 53 -27 107 -60z"/>
<path d="M2000 5058 l0 -2043 68 -39 c37 -21 85 -51 107 -66 22 -14 76 -46
120 -69 44 -24 87 -49 95 -56 8 -7 31 -22 51 -33 72 -40 84 -47 99 -58 8 -6
51 -31 95 -54 44 -23 90 -51 102 -62 11 -11 38 -26 60 -33 l38 -13 5 571 5
571 35 -31 c19 -17 85 -57 145 -90 127 -69 333 -188 420 -243 33 -20 85 -50
115 -65 30 -15 84 -46 120 -70 36 -23 94 -57 130 -76 36 -18 100 -55 143 -82
l77 -50 0 -526 0 -527 68 -38 c37 -21 104 -63 149 -92 45 -30 86 -54 90 -54 4
0 53 -30 108 -65 55 -35 132 -81 170 -101 39 -20 84 -46 100 -58 17 -12 46
-31 66 -43 l36 -20 6 732 c8 1010 -3 3236 -16 3253 -9 12 -189 123 -332 205
-38 22 -81 47 -95 57 -14 9 -63 38 -110 63 -47 26 -116 67 -155 91 -38 24
-128 79 -200 122 -71 42 -148 88 -170 101 -128 78 -282 168 -360 212 -49 28
-126 73 -170 101 -44 27 -102 62 -128 77 -47 27 -111 65 -277 165 -41 25 -120
71 -175 103 -55 32 -118 69 -140 83 -71 45 -196 122 -199 122 -2 0 -52 29
-111 65 -59 36 -110 65 -113 65 -4 0 -18 9 -32 20 -14 11 -28 20 -32 20 -5 0
-8 -919 -8 -2042z m965 459 c33 -19 117 -69 187 -111 70 -42 130 -76 133 -76
3 0 43 -24 90 -52 46 -29 112 -70 147 -91 35 -21 104 -62 153 -92 50 -30 104
-61 120 -70 17 -8 75 -41 130 -73 l100 -58 3 -437 c1 -240 -1 -437 -4 -437 -4
0 -32 15 -63 34 -31 18 -81 46 -111 62 -30 15 -86 48 -125 73 -38 25 -97 59
-130 76 -72 37 -234 133 -307 181 -29 19 -56 34 -59 34 -4 0 -62 32 -130 72
-68 39 -151 87 -184 105 -33 19 -63 37 -66 41 -9 9 -22 868 -14 882 4 7 17 4
38 -8 18 -11 59 -35 92 -55z"/>
<path d="M7726 6471 c-4 -5 -40 -28 -80 -50 -41 -23 -79 -48 -86 -56 -7 -8
-16 -15 -20 -15 -9 0 -176 -93 -198 -111 -17 -14 -30 -22 -111 -66 -25 -14
-50 -29 -56 -33 -5 -4 -46 -27 -90 -50 -44 -24 -102 -57 -130 -75 -27 -18 -95
-58 -150 -90 -55 -32 -111 -65 -125 -75 -14 -9 -43 -24 -65 -34 -22 -10 -49
-27 -60 -36 -11 -10 -51 -35 -90 -56 -38 -20 -94 -52 -123 -71 -29 -18 -55
-33 -57 -33 -3 0 -48 -27 -101 -60 -52 -33 -97 -60 -99 -60 -3 0 -24 -13 -47
-29 -39 -25 -108 -66 -238 -138 -81 -46 -164 -96 -212 -130 -26 -18 -50 -33
-53 -33 -2 0 -35 -19 -72 -41 -38 -23 -83 -48 -100 -56 l-33 -13 0 -1810 0
-1811 23 12 c12 7 110 65 217 129 370 221 475 284 555 330 l30 17 5 438 5 438
75 40 c76 40 209 117 335 194 39 23 89 51 111 62 23 10 68 36 100 57 64 41
223 134 229 134 6 0 178 102 190 112 5 5 71 43 145 85 74 42 187 105 250 141
63 35 121 69 128 74 9 8 12 123 12 514 0 277 -3 504 -7 504 -5 0 -19 -9 -33
-20 -14 -11 -28 -20 -32 -20 -4 0 -35 -16 -70 -37 -150 -86 -197 -113 -263
-148 -38 -21 -101 -56 -140 -78 -38 -22 -101 -58 -140 -80 -38 -22 -110 -63
-160 -92 -49 -29 -137 -79 -195 -112 -58 -34 -148 -85 -200 -115 -84 -49 -131
-76 -286 -164 -23 -13 -44 -20 -48 -17 -3 4 -6 158 -6 344 l0 338 43 29 c23
16 91 54 150 85 60 31 120 66 135 78 33 25 122 78 217 129 121 65 168 92 235
135 36 23 144 87 240 142 96 56 209 122 250 147 41 25 78 46 83 46 4 0 43 22
85 48 42 27 92 58 111 69 l34 21 -2 513 c-1 283 -4 515 -6 517 -1 2 -6 -1 -9
-7z"/>
<path d="M10080 80 l0 -80 80 0 80 0 0 80 0 80 -80 0 -80 0 0 -80z"/>
</g>
</svg>
